REM DIRINDEX 1\2,1\3,1\4,1\5
REM DIRNAME folder01,folder02,folder03,folder04,folder05
TITLE ""
FILE "Chapter_12.mp3" MP3
  TRACK 01 AUDIO
    TITLE "0:"
    INDEX 01 00:00:00
  TRACK 02 AUDIO
    TITLE "5:cjc087_3574"
    INDEX 01 00:00:09
  TRACK 03 AUDIO
    TITLE "0:"
    INDEX 01 00:02:00
  TRACK 04 AUDIO
    TITLE "5:cjc087_3575"
    INDEX 01 00:03:39
  TRACK 05 AUDIO
    TITLE "0:"
    INDEX 01 00:05:73
  TRACK 06 AUDIO
    TITLE "4:cjc087_3576"
    INDEX 01 00:06:73
  TRACK 07 AUDIO
    TITLE "3:cjc087_3577"
    INDEX 01 00:08:60
  TRACK 08 AUDIO
    TITLE "0:"
    INDEX 01 00:10:70
  TRACK 09 AUDIO
    TITLE "4:cjc087_3578"
    INDEX 01 00:11:70
  TRACK 10 AUDIO
    TITLE "3:cjc087_3579"
    INDEX 01 00:14:51
  TRACK 11 AUDIO
    TITLE "0:"
    INDEX 01 00:16:59
  TRACK 12 AUDIO
    TITLE "4:cjc087_3580"
    INDEX 01 00:17:61
  TRACK 13 AUDIO
    TITLE "3:cjc087_3581"
    INDEX 01 00:19:46
  TRACK 14 AUDIO
    TITLE "0:"
    INDEX 01 00:21:58
  TRACK 15 AUDIO
    TITLE "4:cjc087_3582"
    INDEX 01 00:22:60
  TRACK 16 AUDIO
    TITLE "3:cjc087_3583"
    INDEX 01 00:24:00
  TRACK 17 AUDIO
    TITLE "0:"
    INDEX 01 00:25:46
  TRACK 18 AUDIO
    TITLE "4:cjc087_3584"
    INDEX 01 00:26:48
  TRACK 19 AUDIO
    TITLE "3:cjc087_3585"
    INDEX 01 00:28:59
  TRACK 20 AUDIO
    TITLE "0:"
    INDEX 01 00:30:69
  TRACK 21 AUDIO
    TITLE "4:cjc087_3586"
    INDEX 01 00:31:71
  TRACK 22 AUDIO
    TITLE "3:cjc087_3587"
    INDEX 01 00:33:48
  TRACK 23 AUDIO
    TITLE "0:"
    INDEX 01 00:35:31
  TRACK 24 AUDIO
    TITLE "4:cjc087_3588"
    INDEX 01 00:36:33
  TRACK 25 AUDIO
    TITLE "3:cjc087_3589"
    INDEX 01 00:39:00
  TRACK 26 AUDIO
    TITLE "0:"
    INDEX 01 00:42:08
  TRACK 27 AUDIO
    TITLE "5:cjc087_3590"
    INDEX 01 00:43:46
  TRACK 28 AUDIO
    TITLE "0:"
    INDEX 01 00:46:09
  TRACK 29 AUDIO
    TITLE "4:cjc087_3591"
    INDEX 01 00:47:09
  TRACK 30 AUDIO
    TITLE "3:cjc087_3592"
    INDEX 01 00:48:53
  TRACK 31 AUDIO
    TITLE "0:"
    INDEX 01 00:50:35
  TRACK 32 AUDIO
    TITLE "4:cjc087_3593"
    INDEX 01 00:51:36
  TRACK 33 AUDIO
    TITLE "3:cjc087_3594"
    INDEX 01 00:53:02
  TRACK 34 AUDIO
    TITLE "0:"
    INDEX 01 00:55:32
  TRACK 35 AUDIO
    TITLE "4:cjc087_3595"
    INDEX 01 00:56:31
  TRACK 36 AUDIO
    TITLE "3:cjc087_3596"
    INDEX 01 00:58:38
  TRACK 37 AUDIO
    TITLE "0:"
    INDEX 01 01:00:60
  TRACK 38 AUDIO
    TITLE "4:cjc087_3597"
    INDEX 01 01:01:62
  TRACK 39 AUDIO
    TITLE "3:cjc087_3598"
    INDEX 01 01:03:29
  TRACK 40 AUDIO
    TITLE "0:"
    INDEX 01 01:05:60
  TRACK 41 AUDIO
    TITLE "4:cjc087_3599"
    INDEX 01 01:06:61
  TRACK 42 AUDIO
    TITLE "3:cjc087_3600"
    INDEX 01 01:08:52
  TRACK 43 AUDIO
    TITLE "0:"
    INDEX 01 01:10:49
  TRACK 44 AUDIO
    TITLE "4:cjc087_3601"
    INDEX 01 01:11:49
  TRACK 45 AUDIO
    TITLE "3:cjc087_3602"
    INDEX 01 01:14:04
  TRACK 46 AUDIO
    TITLE "0:"
    INDEX 01 01:16:44
  TRACK 47 AUDIO
    TITLE "4:cjc087_3603"
    INDEX 01 01:17:47
  TRACK 48 AUDIO
    TITLE "3:cjc087_3604"
    INDEX 01 01:20:26
  TRACK 49 AUDIO
    TITLE "0:"
    INDEX 01 01:23:20
  TRACK 50 AUDIO
    TITLE "5:cjc087_3605"
    INDEX 01 01:24:53
  TRACK 51 AUDIO
    TITLE "0:"
    INDEX 01 01:27:10
  TRACK 52 AUDIO
    TITLE "4:cjc087_3606"
    INDEX 01 01:28:12
  TRACK 53 AUDIO
    TITLE "3:cjc087_3607"
    INDEX 01 01:30:18
  TRACK 54 AUDIO
    TITLE "0:"
    INDEX 01 01:32:15
  TRACK 55 AUDIO
    TITLE "4:cjc087_3608"
    INDEX 01 01:33:17
  TRACK 56 AUDIO
    TITLE "3:cjc087_3609"
    INDEX 01 01:35:24
  TRACK 57 AUDIO
    TITLE "0:"
    INDEX 01 01:37:69
  TRACK 58 AUDIO
    TITLE "4:cjc087_3610"
    INDEX 01 01:38:71
  TRACK 59 AUDIO
    TITLE "3:cjc087_3611"
    INDEX 01 01:40:19
  TRACK 60 AUDIO
    TITLE "0:"
    INDEX 01 01:42:08
  TRACK 61 AUDIO
    TITLE "4:cjc087_3612"
    INDEX 01 01:43:11
  TRACK 62 AUDIO
    TITLE "3:cjc087_3613"
    INDEX 01 01:44:66
  TRACK 63 AUDIO
    TITLE "0:"
    INDEX 01 01:46:66
  TRACK 64 AUDIO
    TITLE "4:cjc087_3614"
    INDEX 01 01:47:66
  TRACK 65 AUDIO
    TITLE "3:cjc087_3615"
    INDEX 01 01:49:57
  TRACK 66 AUDIO
    TITLE "0:"
    INDEX 01 01:52:06
  TRACK 67 AUDIO
    TITLE "4:cjc087_3616"
    INDEX 01 01:53:06
  TRACK 68 AUDIO
    TITLE "3:cjc087_3617"
    INDEX 01 01:54:50
  TRACK 69 AUDIO
    TITLE "0:"
    INDEX 01 01:56:49
  TRACK 70 AUDIO
    TITLE "4:cjc087_3618"
    INDEX 01 01:57:49
  TRACK 71 AUDIO
    TITLE "3:cjc087_3619"
    INDEX 01 02:00:20
  TRACK 72 AUDIO
    TITLE "0:"
    INDEX 01 02:02:38
  TRACK 73 AUDIO
    TITLE "2:cjc087_3620"
    INDEX 01 02:04:00
  TRACK 74 AUDIO
    TITLE "0:"
    INDEX 01 02:15:45
  TRACK 75 AUDIO
    TITLE "5:cjc087_3621"
    INDEX 01 02:17:18
  TRACK 76 AUDIO
    TITLE "0:"
    INDEX 01 02:19:54
  TRACK 77 AUDIO
    TITLE "4:cjc087_3622"
    INDEX 01 02:20:56
  TRACK 78 AUDIO
    TITLE "3:cjc087_3623"
    INDEX 01 02:22:53
  TRACK 79 AUDIO
    TITLE "0:"
    INDEX 01 02:24:44
  TRACK 80 AUDIO
    TITLE "4:cjc087_3624"
    INDEX 01 02:25:43
  TRACK 81 AUDIO
    TITLE "3:cjc087_3625"
    INDEX 01 02:27:24
  TRACK 82 AUDIO
    TITLE "0:"
    INDEX 01 02:32:69
  TRACK 83 AUDIO
    TITLE "4:cjc087_3626"
    INDEX 01 02:33:68
  TRACK 84 AUDIO
    TITLE "3:cjc087_3627"
    INDEX 01 02:35:39
  TRACK 85 AUDIO
    TITLE "0:"
    INDEX 01 02:37:40
  TRACK 86 AUDIO
    TITLE "4:cjc087_3628"
    INDEX 01 02:38:40
  TRACK 87 AUDIO
    TITLE "3:cjc087_3629"
    INDEX 01 02:41:34
  TRACK 88 AUDIO
    TITLE "0:"
    INDEX 01 02:44:46
  TRACK 89 AUDIO
    TITLE "4:cjc087_3630"
    INDEX 01 02:45:46
  TRACK 90 AUDIO
    TITLE "3:cjc087_3631"
    INDEX 01 02:48:11
  TRACK 91 AUDIO
    TITLE "0:"
    INDEX 01 02:50:25
  TRACK 92 AUDIO
    TITLE "4:cjc087_3632"
    INDEX 01 02:51:25
  TRACK 93 AUDIO
    TITLE "3:cjc087_3633"
    INDEX 01 02:52:42
  TRACK 94 AUDIO
    TITLE "0:"
    INDEX 01 02:55:11
  TRACK 95 AUDIO
    TITLE "4:cjc087_3634"
    INDEX 01 02:56:12
  TRACK 96 AUDIO
    TITLE "3:cjc087_3635"
    INDEX 01 02:58:07
  TRACK 97 AUDIO
    TITLE "0:"
    INDEX 01 02:59:56
  TRACK 98 AUDIO
    TITLE "5:cjc087_3636"
    INDEX 01 03:01:31
  TRACK 99 AUDIO
    TITLE "0:"
    INDEX 01 03:03:67
  TRACK 100 AUDIO
    TITLE "4:cjc087_3637"
    INDEX 01 03:04:67
  TRACK 101 AUDIO
    TITLE "3:cjc087_3638"
    INDEX 01 03:06:48
  TRACK 102 AUDIO
    TITLE "0:"
    INDEX 01 03:08:53
  TRACK 103 AUDIO
    TITLE "4:cjc087_3639"
    INDEX 01 03:09:52
  TRACK 104 AUDIO
    TITLE "3:cjc087_3640"
    INDEX 01 03:11:18
  TRACK 105 AUDIO
    TITLE "0:"
    INDEX 01 03:13:05
  TRACK 106 AUDIO
    TITLE "4:cjc087_3641"
    INDEX 01 03:14:04
  TRACK 107 AUDIO
    TITLE "3:cjc087_3642"
    INDEX 01 03:15:53
  TRACK 108 AUDIO
    TITLE "0:"
    INDEX 01 03:17:69
  TRACK 109 AUDIO
    TITLE "4:cjc087_3643"
    INDEX 01 03:18:69
  TRACK 110 AUDIO
    TITLE "3:cjc087_3644"
    INDEX 01 03:20:58
  TRACK 111 AUDIO
    TITLE "0:"
    INDEX 01 03:23:21
  TRACK 112 AUDIO
    TITLE "4:cjc087_3645"
    INDEX 01 03:24:14
  TRACK 113 AUDIO
    TITLE "3:cjc087_3646"
    INDEX 01 03:26:29
  TRACK 114 AUDIO
    TITLE "0:"
    INDEX 01 03:29:14
  TRACK 115 AUDIO
    TITLE "4:cjc087_3647"
    INDEX 01 03:30:15
  TRACK 116 AUDIO
    TITLE "3:cjc087_3648"
    INDEX 01 03:32:08
  TRACK 117 AUDIO
    TITLE "0:"
    INDEX 01 03:34:09
  TRACK 118 AUDIO
    TITLE "4:cjc087_3649"
    INDEX 01 03:35:04
  TRACK 119 AUDIO
    TITLE "3:cjc087_3650"
    INDEX 01 03:37:45
  TRACK 120 AUDIO
    TITLE "0:"
    INDEX 01 03:40:12
  TRACK 121 AUDIO
    TITLE "5:cjc087_3651"
    INDEX 01 03:41:50
  TRACK 122 AUDIO
    TITLE "0:"
    INDEX 01 03:44:15
  TRACK 123 AUDIO
    TITLE "4:cjc087_3652"
    INDEX 01 03:45:15
  TRACK 124 AUDIO
    TITLE "3:cjc087_3653"
    INDEX 01 03:47:27
  TRACK 125 AUDIO
    TITLE "0:"
    INDEX 01 03:49:24
  TRACK 126 AUDIO
    TITLE "4:cjc087_3654"
    INDEX 01 03:50:26
  TRACK 127 AUDIO
    TITLE "3:cjc087_3655"
    INDEX 01 03:53:45
  TRACK 128 AUDIO
    TITLE "0:"
    INDEX 01 03:56:26
  TRACK 129 AUDIO
    TITLE "4:cjc087_3656"
    INDEX 01 03:57:26
  TRACK 130 AUDIO
    TITLE "3:cjc087_3657"
    INDEX 01 03:59:09
  TRACK 131 AUDIO
    TITLE "0:"
    INDEX 01 04:01:20
  TRACK 132 AUDIO
    TITLE "4:cjc087_3658"
    INDEX 01 04:02:21
  TRACK 133 AUDIO
    TITLE "3:cjc087_3659"
    INDEX 01 04:04:16
  TRACK 134 AUDIO
    TITLE "0:"
    INDEX 01 04:06:25
  TRACK 135 AUDIO
    TITLE "4:cjc087_3660"
    INDEX 01 04:07:26
  TRACK 136 AUDIO
    TITLE "3:cjc087_3661"
    INDEX 01 04:09:70
  TRACK 137 AUDIO
    TITLE "0:"
    INDEX 01 04:12:13
  TRACK 138 AUDIO
    TITLE "4:cjc087_3662"
    INDEX 01 04:13:09
  TRACK 139 AUDIO
    TITLE "3:cjc087_3663"
    INDEX 01 04:15:00
  TRACK 140 AUDIO
    TITLE "0:"
    INDEX 01 04:17:15
  TRACK 141 AUDIO
    TITLE "4:cjc087_3664"
    INDEX 01 04:18:14
  TRACK 142 AUDIO
    TITLE "3:cjc087_3665"
    INDEX 01 04:20:11
  TRACK 143 AUDIO
    TITLE "0:"
    INDEX 01 04:22:18
  TRACK 144 AUDIO
    TITLE "5:cjc087_3666"
    INDEX 01 04:23:56
  TRACK 145 AUDIO
    TITLE "0:"
    INDEX 01 04:26:16
  TRACK 146 AUDIO
    TITLE "4:cjc087_3667"
    INDEX 01 04:27:15
  TRACK 147 AUDIO
    TITLE "3:cjc087_3668"
    INDEX 01 04:28:54
  TRACK 148 AUDIO
    TITLE "0:"
    INDEX 01 04:30:27
  TRACK 149 AUDIO
    TITLE "4:cjc087_3669"
    INDEX 01 04:31:28
  TRACK 150 AUDIO
    TITLE "3:cjc087_3670"
    INDEX 01 04:32:59
  TRACK 151 AUDIO
    TITLE "0:"
    INDEX 01 04:34:15
  TRACK 152 AUDIO
    TITLE "4:cjc087_3671"
    INDEX 01 04:35:15
  TRACK 153 AUDIO
    TITLE "3:cjc087_3672"
    INDEX 01 04:38:17
  TRACK 154 AUDIO
    TITLE "0:"
    INDEX 01 04:41:05
  TRACK 155 AUDIO
    TITLE "4:cjc087_3673"
    INDEX 01 04:42:07
  TRACK 156 AUDIO
    TITLE "3:cjc087_3674"
    INDEX 01 04:43:57
  TRACK 157 AUDIO
    TITLE "0:"
    INDEX 01 04:45:27
  TRACK 158 AUDIO
    TITLE "4:cjc087_3675"
    INDEX 01 04:46:28
  TRACK 159 AUDIO
    TITLE "3:cjc087_3676"
    INDEX 01 04:48:01
  TRACK 160 AUDIO
    TITLE "0:"
    INDEX 01 04:49:71
  TRACK 161 AUDIO
    TITLE "4:cjc087_3677"
    INDEX 01 04:50:69
  TRACK 162 AUDIO
    TITLE "3:cjc087_3678"
    INDEX 01 04:52:66
  TRACK 163 AUDIO
    TITLE "0:"
    INDEX 01 04:54:49
  TRACK 164 AUDIO
    TITLE "4:cjc087_3679"
    INDEX 01 04:55:49
  TRACK 165 AUDIO
    TITLE "3:cjc087_3680"
    INDEX 01 04:58:31
  TRACK 166 AUDIO
    TITLE "0:"
    INDEX 01 05:01:12
  TRACK 167 AUDIO
    TITLE "4:cjc087_3681"
    INDEX 01 05:02:11
  TRACK 168 AUDIO
    TITLE "3:cjc087_3682"
    INDEX 01 05:04:42
  TRACK 169 AUDIO
    TITLE "0:"
    INDEX 01 05:06:56
  TRACK 170 AUDIO
    TITLE "5:cjc087_3683"
    INDEX 01 05:08:22
  TRACK 171 AUDIO
    TITLE "0:"
    INDEX 01 05:10:36
  TRACK 172 AUDIO
    TITLE "3:cjc087_3684"
    INDEX 01 05:11:36
  TRACK 173 AUDIO
    TITLE "4:cjc087_3685"
    INDEX 01 05:13:03
  TRACK 174 AUDIO
    TITLE "0:"
    INDEX 01 05:14:50
  TRACK 175 AUDIO
    TITLE "3:cjc087_3686"
    INDEX 01 05:15:55
  TRACK 176 AUDIO
    TITLE "4:cjc087_3687"
    INDEX 01 05:19:31
  TRACK 177 AUDIO
    TITLE "0:"
    INDEX 01 05:26:02
  TRACK 178 AUDIO
    TITLE "3:cjc087_3688"
    INDEX 01 05:27:00
  TRACK 179 AUDIO
    TITLE "4:cjc087_3689"
    INDEX 01 05:28:50
  TRACK 180 AUDIO
    TITLE "0:"
    INDEX 01 05:30:19
  TRACK 181 AUDIO
    TITLE "3:cjc087_3690"
    INDEX 01 05:31:17
  TRACK 182 AUDIO
    TITLE "4:cjc087_3691"
    INDEX 01 05:32:63
  TRACK 183 AUDIO
    TITLE "0:"
    INDEX 01 05:34:35
  TRACK 184 AUDIO
    TITLE "3:cjc087_3692"
    INDEX 01 05:35:40
  TRACK 185 AUDIO
    TITLE "4:cjc087_3693"
    INDEX 01 05:38:31
  TRACK 186 AUDIO
    TITLE "0:"
    INDEX 01 05:40:71
  TRACK 187 AUDIO
    TITLE "3:cjc087_3694"
    INDEX 01 05:41:72
  TRACK 188 AUDIO
    TITLE "4:cjc087_3695"
    INDEX 01 05:43:69
  TRACK 189 AUDIO
    TITLE "0:"
    INDEX 01 05:46:42
  TRACK 190 AUDIO
    TITLE "2:cjc087_3696"
    INDEX 01 05:48:10
  TRACK 191 AUDIO
    TITLE "0:"
    INDEX 01 06:14:54
  TRACK 192 AUDIO
    TITLE "5:cjc087_3697"
    INDEX 01 06:16:18
  TRACK 193 AUDIO
    TITLE "0:"
    INDEX 01 06:18:54
  TRACK 194 AUDIO
    TITLE "4:cjc087_3698"
    INDEX 01 06:19:57
  TRACK 195 AUDIO
    TITLE "3:cjc087_3699"
    INDEX 01 06:21:29
  TRACK 196 AUDIO
    TITLE "0:"
    INDEX 01 06:24:68
  TRACK 197 AUDIO
    TITLE "4:cjc087_3700"
    INDEX 01 06:25:68
  TRACK 198 AUDIO
    TITLE "3:cjc087_3701"
    INDEX 01 06:28:15
  TRACK 199 AUDIO
    TITLE "0:"
    INDEX 01 06:30:53
  TRACK 200 AUDIO
    TITLE "4:cjc087_3702"
    INDEX 01 06:31:49
  TRACK 201 AUDIO
    TITLE "3:cjc087_3703"
    INDEX 01 06:33:55
  TRACK 202 AUDIO
    TITLE "0:"
    INDEX 01 06:35:68
  TRACK 203 AUDIO
    TITLE "4:cjc087_3704"
    INDEX 01 06:36:71
  TRACK 204 AUDIO
    TITLE "3:cjc087_3705"
    INDEX 01 06:40:42
  TRACK 205 AUDIO
    TITLE "0:"
    INDEX 01 06:42:29
  TRACK 206 AUDIO
    TITLE "4:cjc087_3706"
    INDEX 01 06:43:28
  TRACK 207 AUDIO
    TITLE "3:cjc087_3707"
    INDEX 01 06:45:68
  TRACK 208 AUDIO
    TITLE "0:"
    INDEX 01 06:48:24
  TRACK 209 AUDIO
    TITLE "4:cjc087_3708"
    INDEX 01 06:49:23
  TRACK 210 AUDIO
    TITLE "3:cjc087_3709"
    INDEX 01 06:51:49
  TRACK 211 AUDIO
    TITLE "0:"
    INDEX 01 06:54:36
  TRACK 212 AUDIO
    TITLE "4:cjc087_3710"
    INDEX 01 06:55:35
  TRACK 213 AUDIO
    TITLE "3:cjc087_3711"
    INDEX 01 06:57:48
  TRACK 214 AUDIO
    TITLE "0:"
    INDEX 01 07:00:11
  TRACK 215 AUDIO
    TITLE "5:cjc087_3712"
    INDEX 01 07:01:48
  TRACK 216 AUDIO
    TITLE "0:"
    INDEX 01 07:03:74
  TRACK 217 AUDIO
    TITLE "4:cjc087_3713"
    INDEX 01 07:04:73
  TRACK 218 AUDIO
    TITLE "3:cjc087_3714"
    INDEX 01 07:09:06
  TRACK 219 AUDIO
    TITLE "0:"
    INDEX 01 07:12:69
  TRACK 220 AUDIO
    TITLE "4:cjc087_3715"
    INDEX 01 07:13:69
  TRACK 221 AUDIO
    TITLE "3:cjc087_3716"
    INDEX 01 07:15:44
  TRACK 222 AUDIO
    TITLE "0:"
    INDEX 01 07:17:33
  TRACK 223 AUDIO
    TITLE "4:cjc087_3717"
    INDEX 01 07:18:34
  TRACK 224 AUDIO
    TITLE "3:cjc087_3718"
    INDEX 01 07:20:10
  TRACK 225 AUDIO
    TITLE "0:"
    INDEX 01 07:21:68
  TRACK 226 AUDIO
    TITLE "4:cjc087_3719"
    INDEX 01 07:22:69
  TRACK 227 AUDIO
    TITLE "3:cjc087_3720"
    INDEX 01 07:25:07
  TRACK 228 AUDIO
    TITLE "0:"
    INDEX 01 07:27:67
  TRACK 229 AUDIO
    TITLE "4:cjc087_3721"
    INDEX 01 07:28:66
  TRACK 230 AUDIO
    TITLE "3:cjc087_3722"
    INDEX 01 07:31:00
  TRACK 231 AUDIO
    TITLE "0:"
    INDEX 01 07:32:62
  TRACK 232 AUDIO
    TITLE "4:cjc087_3723"
    INDEX 01 07:33:65
  TRACK 233 AUDIO
    TITLE "3:cjc087_3724"
    INDEX 01 07:36:48
  TRACK 234 AUDIO
    TITLE "0:"
    INDEX 01 07:39:01
  TRACK 235 AUDIO
    TITLE "4:cjc087_3725"
    INDEX 01 07:40:03
  TRACK 236 AUDIO
    TITLE "3:cjc087_3726"
    INDEX 01 07:41:57
  TRACK 237 AUDIO
    TITLE "0:"
    INDEX 01 07:44:32
  TRACK 238 AUDIO
    TITLE "5:cjc087_3727"
    INDEX 01 07:45:70
  TRACK 239 AUDIO
    TITLE "0:"
    INDEX 01 07:48:24
  TRACK 240 AUDIO
    TITLE "4:cjc087_3728"
    INDEX 01 07:49:25
  TRACK 241 AUDIO
    TITLE "3:cjc087_3729"
    INDEX 01 07:51:04
  TRACK 242 AUDIO
    TITLE "0:"
    INDEX 01 07:53:09
  TRACK 243 AUDIO
    TITLE "4:cjc087_3730"
    INDEX 01 07:54:09
  TRACK 244 AUDIO
    TITLE "3:cjc087_3731"
    INDEX 01 07:56:41
  TRACK 245 AUDIO
    TITLE "0:"
    INDEX 01 07:59:47
  TRACK 246 AUDIO
    TITLE "4:cjc087_3732"
    INDEX 01 08:00:48
  TRACK 247 AUDIO
    TITLE "3:cjc087_3733"
    INDEX 01 08:02:59
  TRACK 248 AUDIO
    TITLE "0:"
    INDEX 01 08:05:46
  TRACK 249 AUDIO
    TITLE "4:cjc087_3734"
    INDEX 01 08:06:47
  TRACK 250 AUDIO
    TITLE "3:cjc087_3735"
    INDEX 01 08:08:34
  TRACK 251 AUDIO
    TITLE "0:"
    INDEX 01 08:10:16
  TRACK 252 AUDIO
    TITLE "4:cjc087_3736"
    INDEX 01 08:11:15
  TRACK 253 AUDIO
    TITLE "3:cjc087_3737"
    INDEX 01 08:12:71
  TRACK 254 AUDIO
    TITLE "0:"
    INDEX 01 08:15:05
  TRACK 255 AUDIO
    TITLE "4:cjc087_3738"
    INDEX 01 08:16:06
  TRACK 256 AUDIO
    TITLE "3:cjc087_3739"
    INDEX 01 08:17:37
  TRACK 257 AUDIO
    TITLE "0:"
    INDEX 01 08:19:69
  TRACK 258 AUDIO
    TITLE "4:cjc087_3740"
    INDEX 01 08:20:73
  TRACK 259 AUDIO
    TITLE "3:cjc087_3741"
    INDEX 01 08:23:08
  TRACK 260 AUDIO
    TITLE "0:"
    INDEX 01 08:25:50
  TRACK 261 AUDIO
    TITLE "5:cjc087_3742"
    INDEX 01 08:27:12
  TRACK 262 AUDIO
    TITLE "0:"
    INDEX 01 08:29:42
  TRACK 263 AUDIO
    TITLE "3:cjc087_3743"
    INDEX 01 08:30:42
  TRACK 264 AUDIO
    TITLE "4:cjc087_3744"
    INDEX 01 08:32:11
  TRACK 265 AUDIO
    TITLE "0:"
    INDEX 01 08:33:54
  TRACK 266 AUDIO
    TITLE "3:cjc087_3745"
    INDEX 01 08:34:53
  TRACK 267 AUDIO
    TITLE "4:cjc087_3746"
    INDEX 01 08:37:44
  TRACK 268 AUDIO
    TITLE "0:"
    INDEX 01 08:41:04
  TRACK 269 AUDIO
    TITLE "3:cjc087_3747"
    INDEX 01 08:42:02
  TRACK 270 AUDIO
    TITLE "4:cjc087_3748"
    INDEX 01 08:43:74
  TRACK 271 AUDIO
    TITLE "0:"
    INDEX 01 08:46:02
  TRACK 272 AUDIO
    TITLE "3:cjc087_3749"
    INDEX 01 08:46:74
  TRACK 273 AUDIO
    TITLE "4:cjc087_3750"
    INDEX 01 08:48:63
  TRACK 274 AUDIO
    TITLE "0:"
    INDEX 01 08:50:09
  TRACK 275 AUDIO
    TITLE "3:cjc087_3751"
    INDEX 01 08:51:07
  TRACK 276 AUDIO
    TITLE "4:cjc087_3752"
    INDEX 01 08:53:23
  TRACK 277 AUDIO
    TITLE "0:"
    INDEX 01 08:55:65
  TRACK 278 AUDIO
    TITLE "3:cjc087_3753"
    INDEX 01 08:56:65
  TRACK 279 AUDIO
    TITLE "4:cjc087_3754"
    INDEX 01 08:58:64
  TRACK 280 AUDIO
    TITLE "0:"
    INDEX 01 09:01:05
  TRACK 281 AUDIO
    TITLE "3:cjc087_3755"
    INDEX 01 09:02:10
  TRACK 282 AUDIO
    TITLE "4:cjc087_3756"
    INDEX 01 09:03:69
  TRACK 283 AUDIO
    TITLE "0:"
    INDEX 01 09:05:64
  TRACK 284 AUDIO
    TITLE "5:cjc087_3757"
    INDEX 01 09:07:25
  TRACK 285 AUDIO
    TITLE "0:"
    INDEX 01 09:09:52
  TRACK 286 AUDIO
    TITLE "4:cjc087_3758"
    INDEX 01 09:10:51
  TRACK 287 AUDIO
    TITLE "3:cjc087_3759"
    INDEX 01 09:13:08
  TRACK 288 AUDIO
    TITLE "0:"
    INDEX 01 09:16:09
  TRACK 289 AUDIO
    TITLE "4:cjc087_3760"
    INDEX 01 09:17:10
  TRACK 290 AUDIO
    TITLE "3:cjc087_3761"
    INDEX 01 09:18:58
  TRACK 291 AUDIO
    TITLE "0:"
    INDEX 01 09:20:55
  TRACK 292 AUDIO
    TITLE "4:cjc087_3762"
    INDEX 01 09:21:55
  TRACK 293 AUDIO
    TITLE "3:cjc087_3763"
    INDEX 01 09:24:39
  TRACK 294 AUDIO
    TITLE "0:"
    INDEX 01 09:27:46
  TRACK 295 AUDIO
    TITLE "4:cjc087_3764"
    INDEX 01 09:28:45
  TRACK 296 AUDIO
    TITLE "3:cjc087_3765"
    INDEX 01 09:31:08
  TRACK 297 AUDIO
    TITLE "0:"
    INDEX 01 09:34:06
  TRACK 298 AUDIO
    TITLE "4:cjc087_3766"
    INDEX 01 09:35:10
  TRACK 299 AUDIO
    TITLE "3:cjc087_3767"
    INDEX 01 09:37:22
  TRACK 300 AUDIO
    TITLE "0:"
    INDEX 01 09:39:49
  TRACK 301 AUDIO
    TITLE "2:cjc087_3768"
    INDEX 01 09:41:10
  TRACK 302 AUDIO
    TITLE "0:"
    INDEX 01 10:00:47
  TRACK 303 AUDIO
    TITLE "5:cjc087_3769"
    INDEX 01 10:02:15
  TRACK 304 AUDIO
    TITLE "0:"
    INDEX 01 10:04:51
  TRACK 305 AUDIO
    TITLE "4:cjc087_3770"
    INDEX 01 10:05:50
  TRACK 306 AUDIO
    TITLE "3:cjc087_3771"
    INDEX 01 10:07:02
  TRACK 307 AUDIO
    TITLE "0:"
    INDEX 01 10:08:68
  TRACK 308 AUDIO
    TITLE "4:cjc087_3772"
    INDEX 01 10:09:69
  TRACK 309 AUDIO
    TITLE "3:cjc087_3773"
    INDEX 01 10:12:60
  TRACK 310 AUDIO
    TITLE "0:"
    INDEX 01 10:16:36
  TRACK 311 AUDIO
    TITLE "4:cjc087_3774"
    INDEX 01 10:17:36
  TRACK 312 AUDIO
    TITLE "3:cjc087_3775"
    INDEX 01 10:19:54
  TRACK 313 AUDIO
    TITLE "0:"
    INDEX 01 10:22:72
  TRACK 314 AUDIO
    TITLE "4:cjc087_3776"
    INDEX 01 10:23:72
  TRACK 315 AUDIO
    TITLE "3:cjc087_3777"
    INDEX 01 10:26:07
  TRACK 316 AUDIO
    TITLE "0:"
    INDEX 01 10:28:41
  TRACK 317 AUDIO
    TITLE "4:cjc087_3778"
    INDEX 01 10:29:41
  TRACK 318 AUDIO
    TITLE "3:cjc087_3779"
    INDEX 01 10:31:59
  TRACK 319 AUDIO
    TITLE "0:"
    INDEX 01 10:33:66
  TRACK 320 AUDIO
    TITLE "5:cjc087_3780"
    INDEX 01 10:35:28
  TRACK 321 AUDIO
    TITLE "0:"
    INDEX 01 10:37:56
  TRACK 322 AUDIO
    TITLE "4:cjc087_3781"
    INDEX 01 10:38:59
  TRACK 323 AUDIO
    TITLE "3:cjc087_3782"
    INDEX 01 10:40:35
  TRACK 324 AUDIO
    TITLE "0:"
    INDEX 01 10:43:74
  TRACK 325 AUDIO
    TITLE "4:cjc087_3783"
    INDEX 01 10:44:70
  TRACK 326 AUDIO
    TITLE "3:cjc087_3784"
    INDEX 01 10:46:57
  TRACK 327 AUDIO
    TITLE "0:"
    INDEX 01 10:48:42
  TRACK 328 AUDIO
    TITLE "4:cjc087_3785"
    INDEX 01 10:49:42
  TRACK 329 AUDIO
    TITLE "3:cjc087_3786"
    INDEX 01 10:51:21
  TRACK 330 AUDIO
    TITLE "0:"
    INDEX 01 10:53:37
  TRACK 331 AUDIO
    TITLE "4:cjc087_3787"
    INDEX 01 10:54:37
  TRACK 332 AUDIO
    TITLE "3:cjc087_3788"
    INDEX 01 10:56:51
  TRACK 333 AUDIO
    TITLE "0:"
    INDEX 01 10:59:30
  TRACK 334 AUDIO
    TITLE "4:cjc087_3789"
    INDEX 01 11:00:30
  TRACK 335 AUDIO
    TITLE "3:cjc087_3790"
    INDEX 01 11:02:74
  TRACK 336 AUDIO
    TITLE "0:"
    INDEX 01 11:05:62
  TRACK 337 AUDIO
    TITLE "4:cjc087_3791"
    INDEX 01 11:06:66
  TRACK 338 AUDIO
    TITLE "3:cjc087_3792"
    INDEX 01 11:09:44
  TRACK 339 AUDIO
    TITLE "0:"
    INDEX 01 11:11:39
  TRACK 340 AUDIO
    TITLE "4:cjc087_3793"
    INDEX 01 11:12:39
  TRACK 341 AUDIO
    TITLE "3:cjc087_3794"
    INDEX 01 11:14:16
  TRACK 342 AUDIO
    TITLE "0:"
    INDEX 01 11:16:35
  TRACK 343 AUDIO
    TITLE "4:cjc087_3795"
    INDEX 01 11:17:36
  TRACK 344 AUDIO
    TITLE "3:cjc087_3796"
    INDEX 01 11:19:58
  TRACK 345 AUDIO
    TITLE "0:"
    INDEX 01 11:22:18
  TRACK 346 AUDIO
    TITLE "4:cjc087_3797"
    INDEX 01 11:23:17
  TRACK 347 AUDIO
    TITLE "3:cjc087_3798"
    INDEX 01 11:25:49
  TRACK 348 AUDIO
    TITLE "0:"
    INDEX 01 11:27:68
  TRACK 349 AUDIO
    TITLE "5:cjc087_3799"
    INDEX 01 11:29:29
  TRACK 350 AUDIO
    TITLE "0:"
    INDEX 01 11:31:65
  TRACK 351 AUDIO
    TITLE "4:cjc087_3800"
    INDEX 01 11:32:65
  TRACK 352 AUDIO
    TITLE "3:cjc087_3801"
    INDEX 01 11:34:58
  TRACK 353 AUDIO
    TITLE "0:"
    INDEX 01 11:36:57
  TRACK 354 AUDIO
    TITLE "4:cjc087_3802"
    INDEX 01 11:37:56
  TRACK 355 AUDIO
    TITLE "3:cjc087_3803"
    INDEX 01 11:39:34
  TRACK 356 AUDIO
    TITLE "0:"
    INDEX 01 11:41:17
  TRACK 357 AUDIO
    TITLE "4:cjc087_3804"
    INDEX 01 11:42:18
  TRACK 358 AUDIO
    TITLE "3:cjc087_3805"
    INDEX 01 11:43:73
  TRACK 359 AUDIO
    TITLE "0:"
    INDEX 01 11:46:14
  TRACK 360 AUDIO
    TITLE "4:cjc087_3806"
    INDEX 01 11:47:15
  TRACK 361 AUDIO
    TITLE "3:cjc087_3807"
    INDEX 01 11:49:50
  TRACK 362 AUDIO
    TITLE "0:"
    INDEX 01 11:52:60
  TRACK 363 AUDIO
    TITLE "4:cjc087_3808"
    INDEX 01 11:53:59
  TRACK 364 AUDIO
    TITLE "3:cjc087_3809"
    INDEX 01 11:56:18
  TRACK 365 AUDIO
    TITLE "0:"
    INDEX 01 11:59:03
  TRACK 366 AUDIO
    TITLE "4:cjc087_3810"
    INDEX 01 12:00:00
  TRACK 367 AUDIO
    TITLE "3:cjc087_3811"
    INDEX 01 12:02:33
  TRACK 368 AUDIO
    TITLE "0:"
    INDEX 01 12:05:17
  TRACK 369 AUDIO
    TITLE "4:cjc087_3812"
    INDEX 01 12:06:19
  TRACK 370 AUDIO
    TITLE "3:cjc087_3813"
    INDEX 01 12:08:18
  TRACK 371 AUDIO
    TITLE "0:"
    INDEX 01 12:10:15
  TRACK 372 AUDIO
    TITLE "5:cjc087_3814"
    INDEX 01 12:11:53
  TRACK 373 AUDIO
    TITLE "0:"
    INDEX 01 12:14:10
  TRACK 374 AUDIO
    TITLE "4:cjc087_3815"
    INDEX 01 12:15:12
  TRACK 375 AUDIO
    TITLE "3:cjc087_3816"
    INDEX 01 12:17:42
  TRACK 376 AUDIO
    TITLE "0:"
    INDEX 01 12:20:25
  TRACK 377 AUDIO
    TITLE "4:cjc087_3817"
    INDEX 01 12:21:24
  TRACK 378 AUDIO
    TITLE "3:cjc087_3818"
    INDEX 01 12:23:51
  TRACK 379 AUDIO
    TITLE "0:"
    INDEX 01 12:25:65
  TRACK 380 AUDIO
    TITLE "4:cjc087_3819"
    INDEX 01 12:26:66
  TRACK 381 AUDIO
    TITLE "3:cjc087_3820"
    INDEX 01 12:28:56
  TRACK 382 AUDIO
    TITLE "0:"
    INDEX 01 12:31:03
  TRACK 383 AUDIO
    TITLE "4:cjc087_3821"
    INDEX 01 12:32:04
  TRACK 384 AUDIO
    TITLE "3:cjc087_3822"
    INDEX 01 12:33:65
  TRACK 385 AUDIO
    TITLE "0:"
    INDEX 01 12:35:60
  TRACK 386 AUDIO
    TITLE "4:cjc087_3823"
    INDEX 01 12:36:59
  TRACK 387 AUDIO
    TITLE "3:cjc087_3824"
    INDEX 01 12:38:29
  TRACK 388 AUDIO
    TITLE "0:"
    INDEX 01 12:40:67
  TRACK 389 AUDIO
    TITLE "4:cjc087_3825"
    INDEX 01 12:41:66
  TRACK 390 AUDIO
    TITLE "3:cjc087_3826"
    INDEX 01 12:43:53
  TRACK 391 AUDIO
    TITLE "0:"
    INDEX 01 12:45:44
  TRACK 392 AUDIO
    TITLE "4:cjc087_3827"
    INDEX 01 12:46:46
  TRACK 393 AUDIO
    TITLE "3:cjc087_3828"
    INDEX 01 12:49:21
  TRACK 394 AUDIO
    TITLE "0:"
    INDEX 01 12:53:32
  TRACK 395 AUDIO
    TITLE "5:cjc087_3829"
    INDEX 01 12:54:71
  TRACK 396 AUDIO
    TITLE "0:"
    INDEX 01 12:57:12
  TRACK 397 AUDIO
    TITLE "3:cjc087_3830"
    INDEX 01 12:58:12
  TRACK 398 AUDIO
    TITLE "4:cjc087_3831"
    INDEX 01 13:00:36
  TRACK 399 AUDIO
    TITLE "0:"
    INDEX 01 13:03:09
  TRACK 400 AUDIO
    TITLE "3:cjc087_3832"
    INDEX 01 13:04:08
  TRACK 401 AUDIO
    TITLE "4:cjc087_3833"
    INDEX 01 13:06:42
  TRACK 402 AUDIO
    TITLE "0:"
    INDEX 01 13:08:36
  TRACK 403 AUDIO
    TITLE "3:cjc087_3834"
    INDEX 01 13:09:35
  TRACK 404 AUDIO
    TITLE "4:cjc087_3835"
    INDEX 01 13:11:30
  TRACK 405 AUDIO
    TITLE "0:"
    INDEX 01 13:12:74
  TRACK 406 AUDIO
    TITLE "3:cjc087_3836"
    INDEX 01 13:13:74
  TRACK 407 AUDIO
    TITLE "4:cjc087_3837"
    INDEX 01 13:15:73
  TRACK 408 AUDIO
    TITLE "0:"
    INDEX 01 13:17:27
  TRACK 409 AUDIO
    TITLE "3:cjc087_3838"
    INDEX 01 13:18:26
  TRACK 410 AUDIO
    TITLE "4:cjc087_3839"
    INDEX 01 13:20:68
  TRACK 411 AUDIO
    TITLE "0:"
    INDEX 01 13:23:02
  TRACK 412 AUDIO
    TITLE "3:cjc087_3840"
    INDEX 01 13:24:03
  TRACK 413 AUDIO
    TITLE "4:cjc087_3841"
    INDEX 01 13:26:37
  TRACK 414 AUDIO
    TITLE "0:"
    INDEX 01 13:27:72
  TRACK 415 AUDIO
    TITLE "3:cjc087_3842"
    INDEX 01 13:28:73
  TRACK 416 AUDIO
    TITLE "4:cjc087_3843"
    INDEX 01 13:31:31
  TRACK 417 AUDIO
    TITLE "0:"
    INDEX 01 13:33:28
  TRACK 418 AUDIO
    TITLE "2:cjc087_3844"
    INDEX 01 13:34:60
  TRACK 419 AUDIO
    TITLE "0:"
    INDEX 01 14:10:05
  TRACK 420 AUDIO
    TITLE "5:cjc087_3845"
    INDEX 01 14:11:50
  TRACK 421 AUDIO
    TITLE "0:"
    INDEX 01 14:14:15
  TRACK 422 AUDIO
    TITLE "4:cjc087_3846"
    INDEX 01 14:15:08
  TRACK 423 AUDIO
    TITLE "3:cjc087_3847"
    INDEX 01 14:17:03
  TRACK 424 AUDIO
    TITLE "0:"
    INDEX 01 14:19:08
  TRACK 425 AUDIO
    TITLE "4:cjc087_3848"
    INDEX 01 14:20:10
  TRACK 426 AUDIO
    TITLE "3:cjc087_3849"
    INDEX 01 14:21:52
  TRACK 427 AUDIO
    TITLE "0:"
    INDEX 01 14:23:61
  TRACK 428 AUDIO
    TITLE "4:cjc087_3850"
    INDEX 01 14:24:60
  TRACK 429 AUDIO
    TITLE "3:cjc087_3851"
    INDEX 01 14:26:55
  TRACK 430 AUDIO
    TITLE "0:"
    INDEX 01 14:29:03
  TRACK 431 AUDIO
    TITLE "4:cjc087_3852"
    INDEX 01 14:30:02
  TRACK 432 AUDIO
    TITLE "3:cjc087_3853"
    INDEX 01 14:33:02
  TRACK 433 AUDIO
    TITLE "0:"
    INDEX 01 14:36:03
  TRACK 434 AUDIO
    TITLE "4:cjc087_3854"
    INDEX 01 14:37:02
  TRACK 435 AUDIO
    TITLE "3:cjc087_3855"
    INDEX 01 14:39:23
  TRACK 436 AUDIO
    TITLE "0:"
    INDEX 01 14:42:11
  TRACK 437 AUDIO
    TITLE "4:cjc087_3856"
    INDEX 01 14:43:13
  TRACK 438 AUDIO
    TITLE "3:cjc087_3857"
    INDEX 01 14:44:63
  TRACK 439 AUDIO
    TITLE "0:"
    INDEX 01 14:46:68
  TRACK 440 AUDIO
    TITLE "4:cjc087_3858"
    INDEX 01 14:47:71
  TRACK 441 AUDIO
    TITLE "3:cjc087_3859"
    INDEX 01 14:50:50
  TRACK 442 AUDIO
    TITLE "0:"
    INDEX 01 14:53:38
  TRACK 443 AUDIO
    TITLE "5:cjc087_3860"
    INDEX 01 14:55:04
  TRACK 444 AUDIO
    TITLE "0:"
    INDEX 01 14:57:38
  TRACK 445 AUDIO
    TITLE "4:cjc087_3861"
    INDEX 01 14:58:38
  TRACK 446 AUDIO
    TITLE "3:cjc087_3862"
    INDEX 01 15:00:11
  TRACK 447 AUDIO
    TITLE "0:"
    INDEX 01 15:03:62
  TRACK 448 AUDIO
    TITLE "4:cjc087_3863"
    INDEX 01 15:04:64
  TRACK 449 AUDIO
    TITLE "3:cjc087_3864"
    INDEX 01 15:06:51
  TRACK 450 AUDIO
    TITLE "0:"
    INDEX 01 15:08:63
  TRACK 451 AUDIO
    TITLE "4:cjc087_3865"
    INDEX 01 15:09:63
  TRACK 452 AUDIO
    TITLE "3:cjc087_3866"
    INDEX 01 15:10:72
  TRACK 453 AUDIO
    TITLE "0:"
    INDEX 01 15:12:53
  TRACK 454 AUDIO
    TITLE "4:cjc087_3867"
    INDEX 01 15:13:55
  TRACK 455 AUDIO
    TITLE "3:cjc087_3868"
    INDEX 01 15:15:15
  TRACK 456 AUDIO
    TITLE "0:"
    INDEX 01 15:17:11
  TRACK 457 AUDIO
    TITLE "4:cjc087_3869"
    INDEX 01 15:18:13
  TRACK 458 AUDIO
    TITLE "3:cjc087_3870"
    INDEX 01 15:20:14
  TRACK 459 AUDIO
    TITLE "0:"
    INDEX 01 15:22:20
  TRACK 460 AUDIO
    TITLE "4:cjc087_3871"
    INDEX 01 15:23:20
  TRACK 461 AUDIO
    TITLE "3:cjc087_3872"
    INDEX 01 15:24:62
  TRACK 462 AUDIO
    TITLE "0:"
    INDEX 01 15:26:71
  TRACK 463 AUDIO
    TITLE "4:cjc087_3873"
    INDEX 01 15:27:73
  TRACK 464 AUDIO
    TITLE "3:cjc087_3874"
    INDEX 01 15:29:66
  TRACK 465 AUDIO
    TITLE "0:"
    INDEX 01 15:31:66
  TRACK 466 AUDIO
    TITLE "5:cjc087_3875"
    INDEX 01 15:33:30
  TRACK 467 AUDIO
    TITLE "0:"
    INDEX 01 15:35:68
  TRACK 468 AUDIO
    TITLE "4:cjc087_3876"
    INDEX 01 15:36:72
  TRACK 469 AUDIO
    TITLE "3:cjc087_3877"
    INDEX 01 15:39:11
  TRACK 470 AUDIO
    TITLE "0:"
    INDEX 01 15:42:00
  TRACK 471 AUDIO
    TITLE "4:cjc087_3878"
    INDEX 01 15:42:74
  TRACK 472 AUDIO
    TITLE "3:cjc087_3879"
    INDEX 01 15:44:63
  TRACK 473 AUDIO
    TITLE "0:"
    INDEX 01 15:47:50
  TRACK 474 AUDIO
    TITLE "4:cjc087_3880"
    INDEX 01 15:48:49
  TRACK 475 AUDIO
    TITLE "3:cjc087_3881"
    INDEX 01 15:50:60
  TRACK 476 AUDIO
    TITLE "0:"
    INDEX 01 15:53:41
  TRACK 477 AUDIO
    TITLE "4:cjc087_3882"
    INDEX 01 15:54:38
  TRACK 478 AUDIO
    TITLE "3:cjc087_3883"
    INDEX 01 15:57:21
  TRACK 479 AUDIO
    TITLE "0:"
    INDEX 01 15:59:39
  TRACK 480 AUDIO
    TITLE "4:cjc087_3884"
    INDEX 01 16:00:39
  TRACK 481 AUDIO
    TITLE "3:cjc087_3885"
    INDEX 01 16:01:62
  TRACK 482 AUDIO
    TITLE "0:"
    INDEX 01 16:03:43
  TRACK 483 AUDIO
    TITLE "4:cjc087_3886"
    INDEX 01 16:04:40
  TRACK 484 AUDIO
    TITLE "3:cjc087_3887"
    INDEX 01 16:06:10
  TRACK 485 AUDIO
    TITLE "0:"
    INDEX 01 16:07:74
  TRACK 486 AUDIO
    TITLE "4:cjc087_3888"
    INDEX 01 16:09:00
  TRACK 487 AUDIO
    TITLE "3:cjc087_3889"
    INDEX 01 16:11:09
  TRACK 488 AUDIO
    TITLE "0:"
    INDEX 01 16:13:35
  TRACK 489 AUDIO
    TITLE "5:cjc087_3890"
    INDEX 01 16:14:74
  TRACK 490 AUDIO
    TITLE "0:"
    INDEX 01 16:17:39
  TRACK 491 AUDIO
    TITLE "4:cjc087_3891"
    INDEX 01 16:18:39
  TRACK 492 AUDIO
    TITLE "3:cjc087_3892"
    INDEX 01 16:20:47
  TRACK 493 AUDIO
    TITLE "0:"
    INDEX 01 16:24:18
  TRACK 494 AUDIO
    TITLE "4:cjc087_3893"
    INDEX 01 16:25:17
  TRACK 495 AUDIO
    TITLE "3:cjc087_3894"
    INDEX 01 16:27:53
  TRACK 496 AUDIO
    TITLE "0:"
    INDEX 01 16:30:20
  TRACK 497 AUDIO
    TITLE "4:cjc087_3895"
    INDEX 01 16:31:24
  TRACK 498 AUDIO
    TITLE "3:cjc087_3896"
    INDEX 01 16:32:58
  TRACK 499 AUDIO
    TITLE "0:"
    INDEX 01 16:34:47
  TRACK 500 AUDIO
    TITLE "4:cjc087_3897"
    INDEX 01 16:35:51
  TRACK 501 AUDIO
    TITLE "3:cjc087_3898"
    INDEX 01 16:37:30
  TRACK 502 AUDIO
    TITLE "0:"
    INDEX 01 16:39:37
  TRACK 503 AUDIO
    TITLE "4:cjc087_3899"
    INDEX 01 16:40:36
  TRACK 504 AUDIO
    TITLE "3:cjc087_3900"
    INDEX 01 16:42:41
  TRACK 505 AUDIO
    TITLE "0:"
    INDEX 01 16:44:18
  TRACK 506 AUDIO
    TITLE "4:cjc087_3901"
    INDEX 01 16:45:20
  TRACK 507 AUDIO
    TITLE "3:cjc087_3902"
    INDEX 01 16:47:52
  TRACK 508 AUDIO
    TITLE "0:"
    INDEX 01 16:50:35
  TRACK 509 AUDIO
    TITLE "4:cjc087_3903"
    INDEX 01 16:51:32
  TRACK 510 AUDIO
    TITLE "3:cjc087_3904"
    INDEX 01 16:52:73
  TRACK 511 AUDIO
    TITLE "0:"
    INDEX 01 16:54:66
